<svg width="1728" height="1117" viewBox="0 0 1728 1117" fill="none" xmlns="http://www.w3.org/2000/svg">
<g clip-path="url(#clip0_217_22)">
<rect width="1728" height="1117" fill="#2D4059"/>
<g filter="url(#filter0_i_217_22)">
<path fill-rule="evenodd" clip-rule="evenodd" d="M0 718L71.5446 768.718C144.083 818.478 288.166 918 432.248 926.612C576.331 935.225 720.414 851.971 864.497 859.627C1007.59 868.239 1151.67 967.761 1295.75 967.761C1439.83 967.761 1583.92 868.239 1656.46 818.478L1728 768.718V1118H1656.46C1583.92 1118 1439.83 1118 1295.75 1118C1151.67 1118 1007.59 1118 864.497 1118C720.414 1118 576.331 1118 432.248 1118C288.166 1118 144.083 1118 71.5446 1118H0V718Z" fill="#EA5455"/>
</g>
</g>
<defs>
<filter id="filter0_i_217_22" x="0" y="718" width="1728" height="411" filterUnits="userSpaceOnUse" color-interpolation-filters="sRGB">
<feFlood flood-opacity="0" result="BackgroundImageFix"/>
<feBlend mode="normal" in="SourceGraphic" in2="BackgroundImageFix" result="shape"/>
<feColorMatrix in="SourceAlpha" type="matrix" values="0 0 0 0 0 0 0 0 0 0 0 0 0 0 0 0 0 0 127 0" result="hardAlpha"/>
<feOffset dy="11"/>
<feGaussianBlur stdDeviation="14"/>
<feComposite in2="hardAlpha" operator="arithmetic" k2="-1" k3="1"/>
<feColorMatrix type="matrix" values="0 0 0 0 0 0 0 0 0 0 0 0 0 0 0 0 0 0 0.25 0"/>
<feBlend mode="normal" in2="shape" result="effect1_innerShadow_217_22"/>
</filter>
<clipPath id="clip0_217_22">
<rect width="1728" height="1117" fill="white"/>
</clipPath>
</defs>
</svg>
